# xmcd CD database file
#
# Track frame offsets:
#	150
#	20987
#	40247
#	59037
#	85750
#	108015
#	126132
#	146747
#	168105
#	186497
#	205670
#	225235
#
# Disc length: 3232 seconds
#
# Revision: 0
# Processed by: cddbd v1.4PL0 Copyright (c) Steve Scherf et al.
# Submitted via: CDex 1.50
#
DISCID=a10c9e0c
DTITLE=Instinct Jazz - New Voices 4
DYEAR=1998
DGENRE=Jazz
TTITLE0=Chris Standring - Sneaky
TTITLE1=Michael McEvoy - Just a Vibe
TTITLE2=Nigel Wallace-Price - City Nights
TTITLE3=Camelle Hinds - Sousalito Calling
TTITLE4=Duncan Millar - Shooting Star
TTITLE5=Brian Tarquin - Trippin'
TTITLE6=Chris Standring - Shake
TTITLE7=Duboniks - Don't Get Pushy
TTITLE8=Michael McEvoy - Midnight Shaker
TTITLE9=Nigel Wallace-Price - Sunburst
TTITLE10=Duncan Millar - A New Day
TTITLE11=Ollano - Latitudes
EXTD=YEAR: 1998
EXTT0=
EXTT1=
EXTT2=
EXTT3=
EXTT4=
EXTT5=
EXTT6=
EXTT7=
EXTT8=
EXTT9=
EXTT10=
EXTT11=
PLAYORDER=
